<svg xmlns="http://www.w3.org/2000/svg" width="48" height="48" fill="none" id="ai-voice">
  <path fill="#8227FF" fill-rule="evenodd" d="M42.563 1.752c-.126-.612-1-.612-1.125 0a3.45 3.45 0 0 1-2.686 2.685c-.612.126-.612 1 0 1.126a3.45 3.45 0 0 1 2.686 2.685c.125.612 1 .612 1.125 0a3.45 3.45 0 0 1 2.685-2.685c.612-.126.612-1 0-1.126a3.45 3.45 0 0 1-2.685-2.685m-6.625 5.835c-.209-1.02-1.667-1.02-1.875 0a5.74 5.74 0 0 1-4.476 4.476c-1.02.208-1.02 1.666 0 1.875a5.74 5.74 0 0 1 4.476 4.475c.208 1.02 1.666 1.02 1.875 0a5.74 5.74 0 0 1 4.475-4.475c1.02-.209 1.02-1.667 0-1.875a5.74 5.74 0 0 1-4.475-4.476"></path>
  <path fill="#202124" d="M28.317 8.535a1.5 1.5 0 0 0 1.366-2.671zm7.712 14.873a1.5 1.5 0 1 0-2.886-.816zm-25.9 4.604a1.5 1.5 0 0 0-2.258 1.976zm.603 2.967 1.129-.987zm26.536 0 1.129.988zm2.86-.991a1.5 1.5 0 0 0-2.257-1.976zM25.5 38a1.5 1.5 0 0 0-3 0zm-3 5a1.5 1.5 0 0 0 3 0zm-2.5-.5a1.5 1.5 0 0 0 0 3zm8 3a1.5 1.5 0 0 0 0-3zM14.5 20v-3h-3v3zm9.5 9.5a9.5 9.5 0 0 1-9.5-9.5h-3c0 6.904 5.596 12.5 12.5 12.5zm0-25c-6.904 0-12.5 5.596-12.5 12.5h3A9.5 9.5 0 0 1 24 7.5zm0 3c1.558 0 3.024.374 4.317 1.035l1.366-2.671A12.45 12.45 0 0 0 24 4.5zm9.143 15.092A9.505 9.505 0 0 1 24 29.5v3c5.724 0 10.546-3.846 12.03-9.092zM7.87 29.988l1.732 1.98 2.258-1.976-1.732-1.98zm30.526 1.98 1.732-1.98-2.258-1.976-1.732 1.98zM24 38.5a19.13 19.13 0 0 0 14.397-6.533l-2.258-1.975A16.13 16.13 0 0 1 24 35.5zM9.603 31.967A19.13 19.13 0 0 0 24 38.5v-3a16.13 16.13 0 0 1-12.14-5.508zM22.5 38v5h3v-5zM20 45.5h8v-3h-8z"></path>
</svg>