<svg xmlns="http://www.w3.org/2000/svg" viewBox="0 0 24 24" id="camera">
  <path d="m12,7.75c-2.62,0-4.75,2.13-4.75,4.75s2.13,4.75,4.75,4.75,4.75-2.13,4.75-4.75-2.13-4.75-4.75-4.75Zm0,8c-1.79,0-3.25-1.46-3.25-3.25s1.46-3.25,3.25-3.25,3.25,1.46,3.25,3.25-1.46,3.25-3.25,3.25Z"></path>
  <path d="m19,5.25h-1.17c-.33,0-.65-.13-.88-.37l-.83-.83c-.52-.52-1.21-.81-1.94-.81h-4.34c-.73,0-1.42.29-1.94.81l-.83.83c-.23.23-.55.37-.88.37h-1.17c-1.52,0-2.75,1.23-2.75,2.75v10c0,1.52,1.23,2.75,2.75,2.75h14c1.52,0,2.75-1.23,2.75-2.75v-10c0-1.52-1.23-2.75-2.75-2.75Zm1.25,12.75c0,.69-.56,1.25-1.25,1.25H5c-.69,0-1.25-.56-1.25-1.25v-10c0-.69.56-1.25,1.25-1.25h1.17c.73,0,1.42-.29,1.94-.81l.83-.83c.23-.23.55-.37.88-.37h4.34c.33,0,.65.13.88.37l.83.83c.52.52,1.21.81,1.94.81h1.17c.69,0,1.25.56,1.25,1.25v10Z"></path>
  <circle cx="6" cy="9" r="1"></circle>
</svg>