<svg xmlns="http://www.w3.org/2000/svg" viewBox="0 0 24 24" id="history">
  <path d="m13,7.25c-.41,0-.75.34-.75.75v3.46c0,.59.29,1.13.78,1.46l2.55,1.7c.13.08.27.13.42.13.24,0,.48-.12.62-.33.23-.34.14-.81-.21-1.04l-2.55-1.7c-.07-.05-.11-.12-.11-.21v-3.46c0-.41-.34-.75-.75-.75Z"></path>
  <path d="m13,3.25c-4.22,0-7.81,3.01-8.59,7.09l-.88-.88c-.29-.29-.77-.29-1.06,0s-.29.77,0,1.06l2.02,2c.14.14.33.22.53.22h0c.2,0,.39-.08.53-.22l1.98-2c.29-.29.29-.77,0-1.06-.29-.29-.77-.29-1.06,0l-.4.4c.91-2.99,3.7-5.13,6.93-5.13,4,0,7.25,3.25,7.25,7.25s-3.25,7.25-7.25,7.25c-2.21,0-4.28-.99-5.65-2.72-.26-.32-.73-.38-1.05-.12-.32.26-.38.73-.12,1.05,1.66,2.09,4.15,3.28,6.83,3.28,4.82,0,8.75-3.92,8.75-8.75S17.82,3.25,13,3.25Z"></path>
</svg>