<svg xmlns="http://www.w3.org/2000/svg" viewBox="0 0 24 24" id="home">
  <path d="m19.79,7.83l-5.54-4.75c-1.25-1.07-3.24-1.07-4.49,0l-5.54,4.75c-.61.52-.96,1.28-.96,2.09v9.08c0,1.52,1.23,2.75,2.75,2.75h12c1.52,0,2.75-1.23,2.75-2.75v-9.08c0-.8-.35-1.57-.96-2.09Zm-5.54,12.42h-4.5v-4.25c0-.69.56-1.25,1.25-1.25h2c.69,0,1.25.56,1.25,1.25v4.25Zm5-1.25c0,.69-.56,1.25-1.25,1.25h-2.25v-4.25c0-1.52-1.23-2.75-2.75-2.75h-2c-1.52,0-2.75,1.23-2.75,2.75v4.25h-2.25c-.69,0-1.25-.56-1.25-1.25v-9.08c0-.37.16-.71.44-.95l5.54-4.75c.35-.3.8-.47,1.27-.47s.92.17,1.27.47l5.54,4.75c.28.24.44.58.44.95v9.08Z"></path>
</svg>