<svg xmlns="http://www.w3.org/2000/svg" viewBox="0 0 24 24" id="picture">
  <path d="m18,3.25H6c-1.52,0-2.75,1.23-2.75,2.75v12c0,1.52,1.23,2.75,2.75,2.75h12c1.52,0,2.75-1.23,2.75-2.75V6c0-1.52-1.23-2.75-2.75-2.75Zm-12,1.5h12c.69,0,1.25.56,1.25,1.25v9.6l-2.22-1.74c-.6-.47-1.42-.5-2.05-.08l-1.89,1.26-2.86-2.86c-.66-.66-1.81-.66-2.47,0l-3.01,3.01V6c0-.69.56-1.25,1.25-1.25Zm12,14.5H6c-.69,0-1.25-.56-1.25-1.25v-.69l4.07-4.07c.1-.1.26-.1.35,0l4.29,4.29c.15.15.34.22.53.22s.38-.07.53-.22c.29-.29.29-.77,0-1.06l-.35-.35,1.64-1.09c.09-.06.21-.05.29.01l3.14,2.47v.5c0,.69-.56,1.25-1.25,1.25Z"></path>
  <path d="m14,11.75c1.52,0,2.75-1.23,2.75-2.75s-1.23-2.75-2.75-2.75-2.75,1.23-2.75,2.75,1.23,2.75,2.75,2.75Zm0-4c.69,0,1.25.56,1.25,1.25s-.56,1.25-1.25,1.25-1.25-.56-1.25-1.25.56-1.25,1.25-1.25Z"></path>
</svg>