<?xml version="1.0"?>
<svg id="Capa_1" data-name="Capa 1" xmlns="http://www.w3.org/2000/svg" viewBox="0 0 666.29 182.98">
  <defs>
    
  </defs>
  <path class="cls-1" fill-rule="evenodd" d="M10.03,95.28l-10.03-5.44.06-20.43,55.49-21.81c-2.43-7.91,1.3-12.8,7.77-15.46,12.68-5.21,26.36-6.73,40.17-3.4L176.51,0l24.6,24.6-.16,18.16-9.94,3.95-.02,136.26H9.99s.04-87.69.04-87.69ZM100.02,161.87l-.03-96.42-21.99,8.72v87.81s22.01-.11,22.01-.11Z"></path>
  <path class="cls-1" d="M337.79,128.32c.17-6.23,1.42-11.55,6.63-15.21,3.1-2.17,8.48-5.01,12.5-5.04l28.23-.18-.91-8.01c-.71-6.28-4.62-10.58-11.01-11.41-8.18-1.06-17.11.76-18.88,7.56l-13.46-.12c0-5.26,2.71-9.36,6.24-12.74,6.53-6.26,14.41-5.9,22.91-6.48,13.85-.94,26.38,6.9,26.58,21.92l.48,35.47c.02,1.68,3.76,3.05,5.83,3.14l.12,11.74c-3.47.05-7.55.18-10.14-.61-5.66-1.74-8.19-5.69-8.2-11.76-4.33,10.16-13.42,13.35-23.68,13.78-12.92.54-23.61-7.67-23.22-22.04ZM385.21,117.94l-23.89.29c-3.67.04-7.92,3.03-9.29,5.51-1.57,2.85-1.74,7.94.78,10.45,2.81,2.8,8.03,5.05,11.75,4.55,13.69-1.83,18.91-6.91,20.65-20.8Z"></path>
  <path class="cls-1" d="M311.05,148.95l-.14-48.92c-.02-6.66-5.95-11.18-12.57-11.73-10.77-.91-19.89,8.97-19.99,20.16l-.36,40.51-12.98-.05V51.03s12.95-.06,12.95-.06l.18,40.75c5.07-9.99,11.85-16.59,23.01-14.61,11.05-1.46,22.42,7.31,22.5,19.22l.39,52.61h-12.97Z"></path>
  <path class="cls-1" d="M623.13,139.37c-6.49,8.17-14.5,10.69-24.19,10.91-11.98.28-23.06-4.12-28.96-15.54-6.74-13.05-6.74-29.51,0-42.55,5.9-11.43,16.98-15.8,28.96-15.55,9.73.21,17.66,2.85,23.97,10.63,10.99,13.55,11.26,38.2.22,52.1ZM617.1,105.06c-1.56-7.71-6.2-13.8-13.08-15.92s-15.72-.67-20.14,5.72c-7.15,10.32-7.32,24.59-1.29,35.48,3.96,7.16,12.62,9.68,19.9,7.93,13.6-3.27,17.5-18.97,14.62-33.2Z"></path>
  <path class="cls-1" d="M451.02,136.89l-.02,12.13-18.16-.11c-5.97-.04-11.8-5.72-11.8-11.83l-.04-47.08-10.99-.04v-11.99s11.01,0,11.01,0l-.02-21.99h13.02s-.02,22-.02,22h17.01s0,12,0,12h-16.99s-.04,43.14-.04,43.14c0,1.6,2.33,3.8,3.68,3.98l13.37-.21Z"></path>
  <path class="cls-1" d="M519.82,136.81l.26,12.23-11.33-.17c-6.2-.1-12.62-6.31-12.63-13.18l-.15-84.67h13.03s0,79.94,0,79.94c0,1.7,1.37,4.6,2.64,5.28,1.51.81,3.55.72,8.17.57Z"></path>
  <path class="cls-1" d="M555.72,136.59l.4,12.52-13.23-.48c-3.97-.14-9.81-6.04-9.82-10.65l-.1-86.98h13.01s.09,83.71.09,83.71c.91,2.21,5.11,2.93,9.66,1.87Z"></path>
  <polygon class="cls-1" points="477.01 148.83 464 148.95 464 78 477.01 77.99 477.01 148.83"></polygon>
  <path class="cls-1" d="M478.2,57.18c-.03,5.53-2.71,7.76-7.35,7.94-1.66.07-4.88-.52-6.01-1.47-2.57-2.16-2.71-9.21-.52-11.85,2.07-2.49,8.74-2.78,11.82-.58,1.19.85,2.08,4.01,2.07,5.96Z"></path>
  <g>
    <path class="cls-1" d="M653.71,76.95c-8.67.73-15.68-6.44-14.92-15,.46-5.13,3.8-9.51,8.36-11.4,5.06-2.1,10.67-1.1,14.67,2.54s5.54,9.6,3.61,14.9c-1.78,4.87-6.25,8.49-11.72,8.95ZM650.83,52.4c-6.14.96-10.13,6.7-9.15,12.64.97,5.91,6.6,9.99,12.52,9.05s10.08-6.53,9.15-12.54c-.91-5.88-6.45-10.11-12.52-9.16Z"></path>
    <path class="cls-1" d="M659.51,70.12l-3.96.03-2.11-4.2c-.61-1.21-1.86-1.37-3.24-1.26v5.45s-3.73,0-3.73,0v-14.41s6.69.02,6.69.02c1.16,0,2.27.4,3.23.94.97.77,1.26,1.85,1.27,3.05.02,1.72-.96,3.17-2.67,3.58,1,.52,1.71,1.2,2.18,2.13l2.34,4.67ZM653.91,60.09c.04-.89-.57-1.58-1.41-1.61l-2.31-.07v3.73s2.15-.06,2.15-.06c1.04-.03,1.72-.88,1.56-1.99Z"></path>
  </g>
</svg>