<?xml version="1.0"?>  <svg xmlns="http://www.w3.org/2000/svg" xmlns:xlink="http://www.w3.org/1999/xlink" version="1.1" id="Capa_1" x="0px" y="0px" viewBox="0 0 874 586" style="enable-background:new 0 0 874 586;" xml:space="preserve">  <g> <path class="st0" d="M863.7,519c0,22-18.1,40-40.3,40H58.1c-22.2,0-40.3-18-40.3-40V66.3c0-22,18.1-40,40.3-40h765.2 c22.2,0,40.3,18,40.3,40V519z"></path> <path class="st1" d="M863.7,519c0,22-18.1,40-40.3,40H58.1c-22.2,0-40.3-18-40.3-40V66.3c0-22,18.1-40,40.3-40h765.2 c22.2,0,40.3,18,40.3,40V519z"></path> <path class="st2" d="M54.3,544.9h772.9c11.2,0,20.4-9.1,20.4-20.4V64.6c0-11.2-9.1-20.4-20.4-20.4H54.3c-11.2,0-20.4,9.2-20.4,20.4 v459.9C33.9,535.7,43.1,544.9,54.3,544.9"></path> <rect x="393.4" y="153" width="453.2" height="111.2"></rect> <path class="st0" d="M258.1,393.6l-6.6,25.8c-18,9.3-39.3,12.9-59.4,12.9c-64.2,0-112.9-39.6-112.9-101.2 c0-78.4,54-114.1,119.5-114.1c19.8,0,43.8,5.1,61.2,14.7c-2.7,10.2-4.5,20.4-6.9,30.9h-4.2c-11.1-16.2-30.3-27.6-49.8-27.6 c-49.8,0-70,47.8-70,91.9c0,51.3,25.2,87.4,71.5,87.4c18.6,0,40.2-9.6,53.7-22.5L258.1,393.6"></path> <path class="st0" d="M338.7,427.1c-6.8-0.6-13.6-1.5-20.4-1.5c-6.8,0-13.6,0.9-20.5,1.5V201.7c6.8,0.6,13.6,1.5,20.5,1.5 c6.8,0,13.6-0.9,20.4-1.5V427.1"></path> <path class="st0" d="M493.1,320.3c0-29.6-31.4-39.7-56.4-39.7c-18.7,0-40.9,6.8-54.9,19.9l3.8,17.8h2.1 c1.8-5.3,17.2-18.4,36.2-18.4c13.7,0,28.2,11.9,28.2,26.1c0,4.4-0.9,8.3-4.5,11.6c-6.5,4.2-14.2,6-21.6,7.7 c-37.1,8.9-54.3,17.2-54.3,45.4c0,25.8,18.1,39.1,42.4,39.1c15.4,0,30.2-8,38-21.6c4.7,13,15.4,21.6,29.4,21.6 c8.3,0,19.6-4.7,26.7-8V415c-11.9,0.6-15.1-3-15.1-13.9V320.3 M452.2,378.2c-0.6,14.8-4.5,32.3-22.5,32.3 c-12.8,0-16.3-12.7-16.3-23.7c0-9.5,1.8-18.4,9.5-24.6c8.6-6.8,22-9.5,29.4-12.7V378.2z"></path> <path class="st0" d="M604.4,386.2c12.7-33.8,25.2-67.9,36.2-102.9c3.9,0.6,7.7,0.9,11.9,0.9c3.9,0,7.7-0.3,11.6-0.9 c0.3,3-1.2,5-2.1,7.1c-5.6,11.6-10.4,22.8-15.1,34.7c-13.3,33.2-27.6,66.1-38.9,102c-5-0.6-10.1-1.5-15.1-1.5 c-5.1,0-10.1,0.9-15.1,1.5c-16.6-48.4-32.9-95.2-52.2-143.9c7.7,0.6,15.1,1.5,22.8,1.5c7.7,0,15.1-0.9,22.8-1.5L604.4,386.2"></path> <path class="st0" d="M813.3,355.3c3.3-42.4-14.3-74.7-60.8-74.7c-43,0-67.9,29.7-67.9,71.2c0,48.4,25.2,78,74.4,78 c14.5,0,30.6-5,42.4-13.3l6.5-16.6l-3.6-2.7c-9.2,7.7-22.5,13.3-34.7,13.3c-31.4,0-42.1-24.6-41.2-55.2H813.3 M728.5,341.1 c0.6-15.7,2.7-47.2,24.3-47.2c17.8,0,19.6,31.5,19.6,47.2H728.5z"></path> <path class="st0" d="M417.5,217.9c1.9,1.4,5.1,2.9,7.4,2.9c4.3,0,6.7-2.8,6.7-6.3c-0.1-8.6-17.1-4.9-17.1-19.7 c0-7.1,5.5-12.6,13.9-12.6c4.2,0,8.2,1.5,11.8,3.6l-3.3,5.7c-2.5-1.4-4.9-2.9-7.9-2.9c-3.5,0-6.8,1.9-6.8,5.8 c0,8.5,17.5,5.8,17.5,19.6c0,7.4-5.7,13.1-13.8,13.1c-4.1,0-7.9-1.2-11.4-3.3L417.5,217.9"></path> <polyline class="st0" points="478.4,183.2 486.1,183.2 485.8,226.5 478.1,226.5 478.4,183.2 "></polyline> <path class="st0" d="M530.7,217.9c1.9,1.4,5.1,2.9,7.4,2.9c4.3,0,6.7-2.8,6.7-6.3c-0.1-8.6-17.1-4.9-17.1-19.7 c0-7.1,5.6-12.6,13.9-12.6c4.2,0,8.2,1.5,11.8,3.6l-3.3,5.7c-2.6-1.4-4.9-2.9-7.9-2.9c-3.5,0-6.8,1.9-6.8,5.8 c0,8.5,17.5,5.8,17.5,19.6c0,7.4-5.7,13.1-13.8,13.1c-4,0-7.8-1.2-11.4-3.3L530.7,217.9"></path> <polyline class="st0" points="598.2,190.1 586.5,190.1 586.5,183.2 617.5,183.2 617.5,190.1 605.9,190.1 605.6,226.5 597.9,226.5 598.2,190.1 "></polyline> <polyline class="st0" points="654.8,183.2 677.2,183.2 677.2,190.1 662.5,190.1 662.4,201.2 676.9,201.2 676.9,207.8 662.4,207.8 662.3,219.6 677.2,219.6 677.2,226.5 654.4,226.5 654.8,183.2 "></polyline> <polyline class="st0" points="717.8,183.2 725.7,183.2 735.9,217.8 736,217.8 747.6,183.2 755.5,183.2 761.6,226.5 753.8,227.4 750.6,193.2 750.5,193.2 739.9,226.5 731.9,226.5 722.3,193.2 722.2,193.2 717.9,227.4 710.4,226.5 717.8,183.2 "></polyline> <path class="st0" d="M806.5,215H821l4.1,12.4l7.6-2.3l-14.9-41.9h-7.1l-16.1,41.9l7.2,2.3L806.5,215 M818.9,208.5h-10.2l5.3-16.9 h0.1L818.9,208.5z"></path> </g> </svg>